<?xml version="1.0" encoding="UTF-8"?>
<svg width="198px" height="40px" viewBox="0 0 198 40" version="1.1" xmlns="http://www.w3.org/2000/svg" xmlns:xlink="http://www.w3.org/1999/xlink">
    <!-- Generator: Sketch 55.2 (78181) - https://sketchapp.com -->
    <title>Group 6</title>
    <desc>Created with Sketch.</desc>
    <g id="Design-guideline-enhancement" stroke="none" stroke-width="1" fill="none" fill-rule="evenodd">
        <g id="Design-guideline-feedback-1660" transform="translate(-333.000000, -3978.000000)">
            <g id="Group-6" transform="translate(333.000000, 3978.000000)">
                <path d="M20,0 L178,0 C189.045695,-2.02906125e-15 198,8.954305 198,20 C198,31.045695 189.045695,40 178,40 L20,40 C8.954305,40 1.3527075e-15,31.045695 0,20 C-1.3527075e-15,8.954305 8.954305,2.02906125e-15 20,0 Z" id="Background" fill="#252525"></path>
                <text id="___!Button-label" font-family="SFProText-Medium, SF Pro Text" font-size="14" font-weight="400" line-spacing="18" fill="#FFFFFF">
                    <tspan x="120.260254" y="25">PayMe</tspan>
                </text>
                <text id="___!Button-label" font-family="SFProText-Medium, SF Pro Text" font-size="14" font-weight="400" line-spacing="18" fill="#FFFFFF">
                    <tspan x="30.2822266" y="25">Pay with</tspan>
                </text>
                <g id="PayMe/06-P/03White" transform="translate(93.000000, 7.000000)" fill="#FFFFFF">
                    <path d="M10.5120073,9.45238749e-06 C4.72362224,-0.0080140647 0.00847457944,4.71295921 0.000310093458,10.5241997 C-0.00353663551,13.4597496 0.0309661682,20.70982 0.0312409346,20.7805879 L0.0256278505,25.1407904 C0.0246072897,25.8797384 0.512867103,27.9905288 2.69612131,27.9936041 C5.03285215,27.9967117 5.56154187,25.969685 5.56228766,25.2592096 C5.56307271,24.7423319 5.60044093,21.9991195 5.61296243,21.0856737 C7.89748766,21.0789395 9.53548766,21.0763404 10.4833531,21.0776399 C16.2716989,21.0856737 20.9871213,16.3644248 20.9950604,10.5534599 C21.0030185,4.74225879 16.3003531,0.00805344585 10.5120073,9.45238749e-06 M10.4843736,20.4322222 C9.50247645,20.430647 7.78239981,20.4337581 5.37124654,20.4410436 C5.34133626,20.4410436 5.31189701,20.4451786 5.28328206,20.454 L5.21039047,20.4755021 C5.07657925,20.5151589 4.98425776,20.639052 4.98221664,20.7805879 C4.98017551,20.9376793 4.92848019,24.6350577 4.92749888,25.2584613 C4.92749888,25.2794515 4.82901477,27.3510577 2.69690636,27.3479108 C0.744848411,27.3453474 0.660181121,25.1635921 0.660181121,25.1415387 L0.666304486,20.7795246 C0.665833458,20.7064726 0.631291402,13.4584501 0.635373645,10.524948 C0.64251757,5.06990999 5.07277178,0.637954993 10.5109867,0.645427952 C15.9494372,0.65323488 20.3676409,5.09739803 20.3602707,10.552436 C20.3528036,16.0075134 15.9223531,20.4397046 10.4843736,20.4322222 M10.4293026,2.70412249 C6.02774187,2.6979083 2.44180542,6.30998706 2.43568206,10.7556861 C2.43313065,12.4779027 2.44847832,16.156063 2.45538673,17.7571826 C2.45460168,17.7657677 2.45283533,17.7743134 2.45283533,17.7828591 L2.44259047,25.1690307 C2.44259047,25.3471122 2.58327084,25.4912473 2.75715869,25.4915229 C2.93112505,25.4915229 3.07204093,25.3476242 3.07227645,25.1698183 L3.08099047,18.8487494 C4.27901103,18.844063 8.69238673,18.8277592 10.4075568,18.8300433 C14.8093923,18.8360293 18.3955643,15.2241868 18.4014594,10.7779758 C18.40734,6.33227679 14.8311381,2.71007707 10.4293026,2.70412249 M10.4260643,5.20634407 C7.36728673,5.20193924 4.8753129,7.68826835 4.87095589,10.7487747 C4.86891477,12.2527015 4.8870886,15.9661474 4.8870886,16.0034414 C4.88810916,16.1784512 5.02800449,16.3197114 5.20040075,16.3199871 L5.20220636,16.3199871 C5.2407914,16.3199871 9.0576886,16.3046678 10.4109521,16.3064793 C13.4697297,16.31089 15.9619783,13.8245609 15.9661047,10.7640546 C15.9701428,7.70382391 13.4848419,5.21048495 10.4260643,5.20634407 M10.4117372,15.6706312 C9.28609794,15.6690954 6.45930168,15.6791769 5.51343813,15.6828394 C5.50908112,14.7473401 5.49706991,11.9924315 5.49860075,10.7495229 C5.50244748,8.04002082 7.71258953,5.8382993 10.4252793,5.84219286 C13.1380082,5.84609677 15.3419877,8.05348917 15.3381851,10.7632669 C15.334569,13.4730447 13.1247017,15.67453 10.4117372,15.6706312 M10.4083419,18.1862008 C8.69721477,18.1836017 4.3012671,18.1999055 3.08711383,18.2046312 C3.08122598,16.9912191 3.06258112,12.6668141 3.06513252,10.75671 C3.07051009,6.66615021 6.37402598,3.34230211 10.4285176,3.34800503 C14.4832839,3.35372264 17.7773793,6.68662841 17.7720083,10.7772276 C17.7663493,14.868063 14.463069,18.1916354 10.4083419,18.1862008 M10.5017703,7.70870422 C8.86047308,7.70638368 7.52302822,9.073973 7.52102636,10.757281 C7.52000579,11.5737705 7.52919084,13.5779955 7.52919084,13.5779955 C7.52997589,13.7125215 7.63509364,13.821371 7.76474411,13.821371 L7.76603944,13.821371 C7.76603944,13.821371 9.7763871,13.8133373 10.4936058,13.8143612 C12.1348637,13.8164484 13.4720338,12.4488591 13.4743135,10.7655904 C13.4766264,9.08224304 12.1430282,7.71103066 10.5017703,7.70870422 M10.4945479,13.1679195 C9.96220766,13.1672107 8.67143383,13.1718183 8.15279271,13.1737873 C8.15039832,12.6491516 8.14509925,11.3596945 8.14580579,10.7584231 C8.14772916,9.43155387 9.20420579,8.35357356 10.500789,8.35526496 C11.7976077,8.35723601 12.8511796,9.43785485 12.849298,10.7649997 C12.8476077,12.091672 11.791131,13.1698886 10.4945479,13.1679195" id="PayMe/P/White"></path>
                </g>
            </g>
        </g>
    </g>
</svg>